<?xml version="1.0" encoding="UTF-8"?>
<svg id="_レイヤー_2" data-name="レイヤー 2" xmlns="http://www.w3.org/2000/svg" viewBox="0 0 26 26">
  <defs>
    <style>
      .cls-1 {
        fill: none;
        stroke: #fff;
        stroke-miterlimit: 10;
      }

      .cls-2 {
        fill: #fff;
        stroke-width: 0px;
      }
    </style>
  </defs>
  <g id="_応募ボタン" data-name="応募ボタン">
    <g>
      <path class="cls-2" d="m8.57,8.95c-.21-.1-.31-.24-.31-.43,0-.11.03-.21.1-.31.09-.14.22-.21.39-.21.1,0,.21.02.31.07l9.38,4.36c.28.13.42.32.42.57s-.14.44-.42.56l-9.38,4.37c-.11.05-.21.07-.3.07-.18,0-.31-.07-.4-.21-.07-.1-.1-.2-.1-.31,0-.2.1-.34.31-.44l8.82-4.04-8.82-4.05Z"/>
      <circle class="cls-1" cx="13" cy="13" r="12.5"/>
    </g>
  </g>
</svg>