<?xml version="1.0" encoding="UTF-8"?>
<svg id="_レイヤー_2" data-name="レイヤー 2" xmlns="http://www.w3.org/2000/svg" viewBox="0 0 54.67 40.21">
  <defs>
    <style>
      .cls-1 {
        fill: #72323f;
        stroke-width: 0px;
      }
    </style>
  </defs>
  <g id="_文字" data-name="文字">
    <g>
      <path class="cls-1" d="m26.62,12.41c0,11.82-5.39,27.8-16.79,27.8-7.38,0-9.83-6.23-9.83-13.16C0,14.62,6.06,0,16.86,0c7.69,0,9.76,6.54,9.76,12.41ZM6.63,27.34c0,3.58.61,7.38,4.09,7.38,6.22,0,9.27-16.48,9.27-22.45,0-2.78-.47-6.79-3.84-6.79-6.04,0-9.52,14.92-9.52,21.86Z"/>
      <path class="cls-1" d="m26.66,39.6l.81-4.44,6.32-5.43c8.02-7.19,14-13.17,14-18.85,0-2.85-1.64-5.21-5.36-5.21-3.17,0-5.59,1.19-7.26,2.3l-1.31-4.92c2.62-1.71,6.44-3.06,10.25-3.06,7.48,0,10.57,4.78,10.57,9.79,0,8.31-7.21,15.06-14.45,21.38l-3.11,2.52v.12h14.12l-1.06,5.8h-23.52Z"/>
    </g>
  </g>
</svg>