<?xml version="1.0" encoding="UTF-8"?>
<svg id="_レイヤー_2" data-name="レイヤー 2" xmlns="http://www.w3.org/2000/svg" viewBox="0 0 53.91 40.21">
  <defs>
    <style>
      .cls-1 {
        fill: #72323f;
        stroke-width: 0px;
      }
    </style>
  </defs>
  <g id="_文字" data-name="文字">
    <g>
      <path class="cls-1" d="m26.62,12.41c0,11.82-5.39,27.8-16.79,27.8-7.38,0-9.83-6.23-9.83-13.16C0,14.62,6.06,0,16.86,0c7.69,0,9.76,6.54,9.76,12.41ZM6.63,27.34c0,3.58.61,7.38,4.09,7.38,6.22,0,9.27-16.48,9.27-22.45,0-2.78-.47-6.79-3.84-6.79-6.04,0-9.52,14.92-9.52,21.86Z"/>
      <path class="cls-1" d="m29.47,32.66c1.46.76,3.89,1.81,7.09,1.81,5.29,0,8.3-3.36,8.3-7.11,0-4.19-3.19-6.03-7.55-6.02h-1.52l.99-5.19h1.38c3.62-.02,8.65-2,8.65-6.34,0-2.49-1.62-4.08-4.91-4.08-2.67,0-5.14.8-6.68,1.74l-.85-5.2c2.24-1.28,5.68-2.27,9.08-2.27,6.47,0,10.45,3.62,10.45,8.59s-3.86,8.67-8.24,9.94l-.03.12c3.85,1.02,6.19,4.4,6.19,8.57,0,7.8-7.04,12.99-15.4,12.99-4.01,0-7.53-1.03-8.97-2.17l2.02-5.37Z"/>
    </g>
  </g>
</svg>