<?xml version="1.0" encoding="UTF-8"?>
<svg id="_レイヤー_2" data-name="レイヤー 2" xmlns="http://www.w3.org/2000/svg" viewBox="0 0 50.81 40.21">
  <defs>
    <style>
      .cls-1 {
        fill: #72323f;
        stroke-width: 0px;
      }
    </style>
  </defs>
  <g id="_文字" data-name="文字">
    <g>
      <path class="cls-1" d="m26.62,12.41c0,11.82-5.39,27.8-16.79,27.8-7.38,0-9.83-6.23-9.83-13.16C0,14.62,6.06,0,16.86,0c7.69,0,9.76,6.54,9.76,12.41ZM6.63,27.34c0,3.58.61,7.38,4.09,7.38,6.22,0,9.27-16.48,9.27-22.45,0-2.78-.47-6.79-3.84-6.79-6.04,0-9.52,14.92-9.52,21.86Z"/>
      <path class="cls-1" d="m43.06,7.13h-.12l-7.07,3.37-.32-5.31L45.19.61h5.62l-7.39,39h-6.52l6.16-32.47Z"/>
    </g>
  </g>
</svg>