<?xml version="1.0" encoding="UTF-8"?>
<svg id="_レイヤー_2" data-name="レイヤー 2" xmlns="http://www.w3.org/2000/svg" viewBox="0 0 26.37 16.8">
  <defs>
    <style>
      .cls-1 {
        fill: #f97c9b;
        stroke-width: 0px;
      }
    </style>
  </defs>
  <g id="_文字" data-name="文字">
    <g>
      <path class="cls-1" d="m12.25,8.33c0,5.01-2.03,8.47-6.17,8.47S.02,13.03,0,8.43C0,3.71,1.98,0,6.18,0s6.06,3.88,6.06,8.33Zm-8.44.09c0,3.74.89,5.51,2.35,5.51s2.29-1.86,2.29-5.55-.79-5.49-2.3-5.49c-1.4,0-2.34,1.75-2.34,5.53Z"/>
      <path class="cls-1" d="m20.85,16.52v-3.88h-7.2v-2.47L19.78.27h4.65v9.52h1.94v2.84h-1.94v3.88h-3.59Zm0-6.72v-3.59c0-.98.05-1.98.11-3.03h-.09c-.52,1.06-.96,2-1.51,3.01l-2.17,3.56-.02.05h3.67Z"/>
    </g>
  </g>
</svg>