<?xml version="1.0" encoding="UTF-8"?>
<svg id="_レイヤー_2" data-name="レイヤー 2" xmlns="http://www.w3.org/2000/svg" viewBox="0 0 25.49 16.8">
  <defs>
    <style>
      .cls-1 {
        fill: #f97c9b;
        stroke-width: 0px;
      }
    </style>
  </defs>
  <g id="_文字" data-name="文字">
    <g>
      <path class="cls-1" d="m12.25,8.33c0,5.01-2.03,8.47-6.17,8.47S.02,13.03,0,8.43C0,3.71,1.98,0,6.18,0s6.06,3.88,6.06,8.33Zm-8.44.09c0,3.74.89,5.51,2.35,5.51s2.29-1.86,2.29-5.55-.79-5.49-2.3-5.49c-1.4,0-2.34,1.75-2.34,5.53Z"/>
      <path class="cls-1" d="m14.79,12.8c.66.36,2.23.99,3.78.99,1.97,0,2.97-.95,2.97-2.16,0-1.61-1.6-2.34-3.28-2.34h-1.55v-2.73h1.48c1.27,0,2.88-.5,2.88-1.87,0-.97-.79-1.7-2.39-1.7-1.34,0-2.73.57-3.39.97l-.78-2.74c.98-.63,2.92-1.23,5.03-1.23,3.47,0,5.39,1.82,5.39,4.05,0,1.71-.98,3.07-2.97,3.77v.05c1.95.35,3.52,1.82,3.52,3.96,0,2.87-2.53,4.97-6.64,4.97-2.11,0-3.88-.54-4.82-1.14l.77-2.86Z"/>
    </g>
  </g>
</svg>