<?xml version="1.0" encoding="UTF-8"?>
<svg id="_レイヤー_2" data-name="レイヤー 2" xmlns="http://www.w3.org/2000/svg" viewBox="0 0 46.25 15.27">
  <defs>
    <style>
      .cls-1 {
        fill: #fff;
        stroke-width: 0px;
      }
    </style>
  </defs>
  <g id="_スクロール" data-name="スクロール">
    <g>
      <path class="cls-1" d="m.59,13.15c.05,0,.1,0,.14.02s.09.03.14.04.11.03.18.04.15.02.25.02c.31,0,.65-.03,1.02-.1s.73-.15,1.06-.25.62-.22.85-.36.37-.27.41-.42c.02-.08.03-.15.03-.21,0-.11-.05-.22-.16-.32s-.24-.2-.41-.29-.34-.18-.53-.25-.36-.15-.53-.21l-.33-.14c-.17-.06-.33-.15-.5-.24s-.31-.2-.45-.33-.26-.27-.37-.43-.19-.36-.24-.57c-.03-.09-.05-.18-.06-.27s-.02-.19-.02-.29c0-.17.06-.36.17-.58s.27-.43.46-.65.41-.42.65-.62.5-.36.77-.49c.2-.14.38-.26.57-.37s.37-.21.55-.28.37-.14.57-.19.4-.07.61-.07c.2,0,.41,0,.63.03s.44.06.62.14.35.18.47.32.19.33.19.56c0,.07,0,.17-.03.28s-.05.23-.1.35-.1.22-.17.3-.14.13-.23.13c-.15,0-.27-.03-.37-.09s-.19-.12-.26-.19-.16-.13-.24-.19-.19-.09-.31-.09c-.15,0-.32.03-.52.08s-.4.13-.61.22-.41.2-.61.33-.38.25-.54.38-.29.26-.39.39-.15.24-.15.35c0,.11.04.2.11.27s.16.13.27.19c.14.08.31.16.49.23s.37.16.56.23.37.16.55.23.33.15.46.21c.18.09.33.18.47.27s.26.18.36.29.17.22.22.35.08.28.08.46c0,.08,0,.17-.02.25s-.03.18-.06.29c-.02.1-.05.21-.1.34s-.1.26-.16.39-.11.24-.17.34-.11.17-.15.2c-.25.23-.55.45-.9.66s-.71.38-1.08.54-.75.27-1.12.37-.72.14-1.03.14c-.16,0-.33-.03-.52-.09s-.36-.14-.52-.24-.29-.22-.4-.35-.16-.26-.16-.39c0-.06.02-.14.06-.22s.09-.16.15-.22.12-.13.19-.18.13-.07.19-.07Z"/>
      <path class="cls-1" d="m8.65,11.06c.12-.5.31-1.03.55-1.57s.54-1.08.88-1.59.74-.98,1.18-1.42.92-.79,1.44-1.06c.17-.09.35-.16.56-.21s.41-.07.62-.07.42.02.6.06.34.1.48.2.24.21.32.35.12.32.12.53c0,.16-.02.31-.07.47s-.11.3-.21.43-.21.23-.34.31-.3.12-.48.12c-.14,0-.28-.03-.4-.08s-.24-.11-.35-.18c-.06-.04-.11-.07-.17-.1s-.11-.06-.19-.08c-.26.12-.51.27-.74.46s-.45.41-.64.64-.38.48-.55.75-.32.53-.45.8-.25.53-.34.79-.17.49-.23.71c-.05.16-.09.33-.12.53s-.05.39-.05.58c0,.13.01.25.03.37s.06.22.12.31.14.16.23.21.22.08.36.08c.23,0,.45-.03.68-.09s.44-.13.66-.22.42-.2.63-.32.41-.24.6-.37c.12-.08.25-.16.37-.24s.24-.16.35-.22.21-.12.31-.16.18-.06.25-.06c.1,0,.19.02.27.07s.13.13.13.25c0,.08-.02.18-.06.28-.09.25-.21.48-.37.68s-.33.38-.52.54-.4.3-.62.42-.43.24-.65.34c-.4.21-.81.38-1.23.48s-.76.16-1.04.16c-.09,0-.2,0-.32-.03s-.23-.05-.32-.09c-.53-.23-.91-.53-1.15-.92s-.36-.84-.36-1.37c0-.23.02-.47.05-.72s.09-.51.16-.79Z"/>
      <path class="cls-1" d="m17.31,13.88c.08-.46.18-.96.29-1.5s.22-1.1.34-1.66.23-1.11.34-1.65.21-1.04.28-1.48c0-.06,0-.12,0-.17v-.16c0-.2.01-.4.04-.61s.06-.39.11-.56c.07-.25.15-.42.24-.5s.23-.13.42-.13.34.04.45.11.2.17.27.3.11.27.13.42.03.32.03.49c0,.09,0,.19,0,.3s0,.2,0,.26c.18-.19.38-.38.58-.58s.42-.38.65-.54.48-.29.73-.4.53-.16.81-.16c.11,0,.22,0,.33.03s.22.05.33.08c.13.03.27.08.41.13s.28.13.41.23c.21.16.4.37.54.61s.22.49.22.75c0,.1-.02.2-.06.32s-.09.22-.16.31-.15.17-.24.23-.19.09-.3.09-.25-.03-.41-.08-.29-.13-.4-.22c-.05-.04-.09-.09-.14-.17s-.09-.14-.14-.21-.08-.14-.12-.2-.06-.1-.08-.12c-.03,0-.07-.01-.11-.01s-.08,0-.11,0c-.33,0-.65.08-.95.25s-.58.38-.84.62-.5.5-.72.78-.41.53-.57.75c-.13.53-.28,1.09-.43,1.68s-.32,1.22-.47,1.87v.24c0,.2,0,.39-.02.6s-.05.38-.12.54c-.07.1-.17.18-.31.25s-.29.1-.46.1c-.27,0-.48-.09-.62-.27s-.21-.39-.21-.63c0-.11.02-.22.05-.34Z"/>
      <path class="cls-1" d="m25.73,11.14c.1-.4.25-.82.45-1.26s.47-.9.81-1.35.73-.9,1.2-1.34,1-.84,1.62-1.22c.1-.06.25-.12.45-.19s.41-.11.62-.12c.25-.27.6-.41,1.03-.41.51,0,.94.13,1.28.39s.64.61.86,1.05c.07.14.14.28.2.42s.11.28.16.43.08.32.1.49.04.37.04.6c0,.51-.08,1.04-.24,1.57s-.39,1.05-.69,1.56-.66.99-1.09,1.46-.9.88-1.42,1.25c-.35.25-.74.45-1.17.59s-.9.21-1.43.21-.94-.07-1.3-.2-.67-.32-.92-.57-.43-.54-.55-.89-.18-.73-.18-1.15.06-.85.18-1.32Zm1.62.13c-.04.15-.07.29-.08.42s-.02.26-.02.39c0,.21.03.42.08.6s.14.35.27.48.28.24.46.31.41.11.68.11c.5,0,.96-.13,1.38-.38s.81-.56,1.14-.94.61-.78.83-1.22.38-.83.47-1.2c.06-.23.11-.44.15-.64s.06-.39.06-.56-.03-.33-.09-.47-.14-.31-.24-.49c-.06-.11-.12-.23-.18-.35s-.11-.24-.16-.36c-.05.09-.11.17-.17.24s-.15.13-.26.19-.28.11-.48.15-.47.08-.79.12c-.21.07-.43.18-.65.33s-.44.33-.65.53-.41.42-.61.65-.36.47-.52.72-.29.48-.4.72-.19.45-.24.64Z"/>
      <path class="cls-1" d="m39.19,1.49c.03-.26.08-.5.16-.72s.17-.41.29-.55.28-.22.46-.22c.1,0,.22.02.35.06s.25.09.36.16.21.15.29.25.12.21.12.32c0,.05,0,.11-.03.18s-.04.14-.05.2l-2.44,9.79c-.1.39-.18.76-.24,1.12s-.11.65-.15.87v.23c0,.2-.01.41-.04.64s-.08.45-.15.64-.17.36-.3.5-.29.2-.49.2c-.18,0-.33-.04-.46-.11s-.24-.17-.32-.29-.15-.24-.19-.38-.06-.26-.06-.38c0-.1,0-.23.03-.39s.04-.31.07-.48.06-.33.09-.5.07-.31.1-.43l2.52-10c.02-.22.05-.46.08-.72Z"/>
      <path class="cls-1" d="m44.23,1.49c.03-.26.08-.5.16-.72s.17-.41.29-.55.28-.22.46-.22c.1,0,.22.02.35.06s.25.09.36.16.21.15.29.25.12.21.12.32c0,.05,0,.11-.03.18s-.04.14-.05.2l-2.44,9.79c-.1.39-.18.76-.24,1.12s-.11.65-.15.87v.23c0,.2-.01.41-.04.64s-.08.45-.15.64-.17.36-.3.5-.29.2-.49.2c-.18,0-.33-.04-.46-.11s-.24-.17-.32-.29-.15-.24-.19-.38-.06-.26-.06-.38c0-.1,0-.23.03-.39s.04-.31.07-.48.06-.33.09-.5.07-.31.1-.43l2.52-10c.02-.22.05-.46.08-.72Z"/>
    </g>
  </g>
</svg>